<svg width="20" height="20" viewBox="0 0 20 20" fill="none" xmlns="http://www.w3.org/2000/svg">
<path d="M5.26596e-05 2.92969L5.32777e-05 17.0703C5.33483e-05 18.6856 1.31445 20 2.92974 20L17.0704 20C18.6857 20 20.0001 18.6856 20.0001 17.0703L20.0001 11.1719L12.9297 11.1719L12.9297 13.5156L9.41412 13.5156L9.41412 11.1719L7.0313 11.1719C5.09267 11.1719 3.51568 9.59488 3.51568 7.65625L3.51568 4.10156L7.0313 4.10156L7.0313 7.65625L9.41412 7.65625L9.41412 4.10156L12.9297 4.6875L12.9297 7.65625L20.0001 7.65625L20.0001 2.92969C20.0001 1.31439 18.6857 -8.16774e-07 17.0704 -7.46167e-07L2.92974 -1.28061e-07C1.31444 -5.74539e-08 5.2589e-05 1.31439 5.26596e-05 2.92969Z" fill="#D9D9D9"/>
</svg>
