<svg width="19" height="20" viewBox="0 0 19 20" fill="none" xmlns="http://www.w3.org/2000/svg">
<path d="M5.29686e-05 9.99951C5.32102e-05 15.5245 4.36173 19.9995 9.74113 19.9995C14.0458 19.9995 17.6962 17.1345 18.9832 13.162C19.0749 12.662 18.7734 12.4787 18.5149 12.4787C18.2836 12.4787 17.6706 12.487 16.8586 12.4912C17.4459 15.2728 15.5517 15.8595 15.5517 15.8595C14.4274 16.3145 14.1268 16.972 14.1268 16.972C13.5229 17.8778 13.5353 16.902 13.5353 16.902C13.603 15.8978 14.539 15.3703 14.539 15.3703C16.0284 14.4787 15.598 13.0295 15.3493 12.4578C14.7191 12.3678 14.2903 12.1103 14.0466 11.8245C13.8029 14.0453 12.9653 16.3795 9.23309 16.3795C8.16993 16.3795 7.3009 15.992 6.61939 15.3503C6.37322 15.4628 5.38276 15.8003 4.04121 15.2628C4.04121 15.2628 3.78017 14.4253 5.03993 12.5128C4.8235 11.7128 4.71611 10.8628 4.71116 10.0128C4.71611 9.16284 4.8235 8.31285 5.03993 7.51284C3.78017 5.61285 4.04121 4.77535 4.04121 4.77535C5.38276 4.23785 6.37322 4.57534 6.61939 4.67535C7.3009 4.03785 8.16993 3.65035 9.23309 3.65035C12.9752 3.65035 13.7988 5.98784 14.0384 8.21284C14.3308 7.86284 14.928 7.53784 15.8409 7.53784C17.1444 7.53784 18.1919 7.55034 18.5083 7.55034C18.7635 7.55034 19.0683 7.37534 18.9709 6.86284C17.6921 2.86201 14.0392 -0.000488895 9.74112 -0.000488707C4.36173 -0.000488472 5.27273e-05 4.47701 5.29686e-05 9.99951Z" fill="#D9D9D9"/>
</svg>
