<svg width="20" height="20" viewBox="0 0 20 20" fill="none" xmlns="http://www.w3.org/2000/svg">
<path d="M5.28047e-05 6.25L5.31326e-05 13.75C5.32834e-05 17.2012 2.7988 20 6.25005 20L13.7501 20C17.2013 20 20.0001 17.2012 20.0001 13.75L20.0001 6.25C20.0001 2.79875 17.2013 -7.51891e-07 13.7501 -6.01032e-07L6.25005 -2.73196e-07C2.7988 -1.22337e-07 5.26539e-05 2.79875 5.28047e-05 6.25ZM13.7501 1.875C16.1626 1.875 18.1251 3.8375 18.1251 6.25L18.1251 13.75C18.1251 16.1625 16.1626 18.125 13.7501 18.125L6.25005 18.125C3.83755 18.125 1.87505 16.1625 1.87505 13.75L1.87505 6.25C1.87505 3.8375 3.83755 1.875 6.25005 1.875L13.7501 1.875Z" fill="#D9D9D9"/>
<path d="M5.00005 10C5.00005 12.7613 7.2388 15 10.0001 15C12.7613 15 15.0001 12.7612 15.0001 10C15.0001 7.23875 12.7613 5 10.0001 5C7.2388 5 5.00005 7.23875 5.00005 10ZM13.1251 10C13.1251 11.7225 11.7226 13.125 10.0001 13.125C8.2763 13.125 6.87505 11.7225 6.87505 10C6.87505 8.2775 8.2763 6.875 10.0001 6.875C11.7226 6.875 13.1251 8.2775 13.1251 10Z" fill="#D9D9D9"/>
<path d="M5.29129 4.62501C5.29129 4.25705 4.993 3.95876 4.62504 3.95876C4.25708 3.95876 3.95879 4.25705 3.95879 4.62501C3.95879 4.99297 4.25708 5.29126 4.62504 5.29126C4.993 5.29126 5.29129 4.99297 5.29129 4.62501Z" fill="#D9D9D9"/>
</svg>
