<svg width="46" height="65" viewBox="0 0 46 65" fill="none" xmlns="http://www.w3.org/2000/svg">
<path d="M22.9719 65.0002L4.18634 59.7795L0 12.7745H46.0001L41.8093 59.7725L22.9719 65.0002Z" fill="#4353AD"/>
<path d="M38.2216 56.7798L41.8025 16.618H22.9999V61.0043L38.2216 56.7798Z" fill="#485FB5"/>
<path d="M23 49.0238L22.9748 49.0303L16.5614 47.2967L16.1513 42.6989H10.3704L11.1772 51.7508L22.9735 55.0291L23 55.0218V49.0238ZM8.55994 22.383L9.0834 28.1478H23V22.383H8.55994ZM9.59707 34.0512L10.1131 39.8163H23V34.0512H9.59707Z" fill="#EDEDED"/>
<path d="M27.5654 0.000308037H34.5403V2.5393H30.4824V3.04733H34.5403V8.88696H27.5654V6.22077H31.6236V5.71313H27.5656V0.000308037H27.5654ZM19.1956 0.000308037H26.1703V2.5393H22.1124V3.04733H26.1703V8.88696H19.1958V6.22077H23.2538V5.71313H19.1955V0.000308037H19.1956ZM10.8259 0.000308037H17.8005V2.92012H13.7427V5.84034H17.8009V8.76015H10.8259V0.000308037Z" fill="#100F0D"/>
<path d="M36.3662 34.0514L37.4057 22.3832H22.9802V28.148H31.0947L30.5708 34.0514H22.9802V39.8164H30.0715L29.4026 47.2934L22.98 49.0286V55.0264L34.7856 51.7509L34.872 50.7771L36.2257 35.5995L36.3662 34.0514Z" fill="white"/>
</svg>
