<svg width="46" height="65" viewBox="0 0 46 65" fill="none" xmlns="http://www.w3.org/2000/svg">
<path d="M4.16571 59.7795L0 12.7742H45.7746L41.6044 59.7721L22.8592 65.0002L4.16571 59.7795Z" fill="#E53D20"/>
<path d="M22.8873 61.0042L38.0343 56.7796L41.5981 16.6176H22.8873V61.0042Z" fill="#F15123"/>
<path d="M22.8873 34.0513H15.3044L14.7806 28.1478H22.8873V22.3828H22.8675H8.51785L8.65507 23.9294L10.0635 39.8162H22.8873V34.0513Z" fill="#EDEDED"/>
<path d="M22.8873 49.0234L22.8622 49.0302L16.4801 47.2965L16.072 42.6987H12.9709H10.3195L11.1224 51.7506L22.8609 55.0288L22.8873 55.0215V49.0234Z" fill="#EDEDED"/>
<path d="M4.25882 0.000285149H7.17105V2.8948H9.83493V0.000285149H12.7473V8.76562H9.83505V5.83053H7.17118V8.76562H4.25903V0.000285149H4.25882Z" fill="#100F0D"/>
<path d="M16.5769 2.90702H14.0131V0.000285149H22.0541V2.90702H19.4892V8.76562H16.5771V2.90702H16.5769Z" fill="#100F0D"/>
<path d="M23.3303 0.000285149H26.3669L28.2348 3.08014L30.1009 0.000285149H33.1386V8.76562H30.2384V4.42103L28.2348 7.53763H28.1848L26.1799 4.42103V8.76562H23.3303V0.000285149Z" fill="#100F0D"/>
<path d="M34.588 0.000285149H37.501V5.86834H41.5963V8.76562H34.588V0.000285149Z" fill="#100F0D"/>
<path d="M22.8675 34.0513V39.8161H29.9239L29.2588 47.293L22.8675 49.0284V55.0261L34.6153 51.7507L34.7014 50.7767L36.0481 35.5993L36.1879 34.0513H34.6437H22.8675Z" fill="white"/>
<path d="M22.8675 22.3828V28.1478H36.691H36.7093L36.8243 26.852L37.0854 23.9294L37.2224 22.3828H22.8675Z" fill="white"/>
</svg>
