<svg width="162" height="37" viewBox="0 0 162 37" fill="none" xmlns="http://www.w3.org/2000/svg">
<path fill-rule="evenodd" clip-rule="evenodd" d="M154.373 2.70667L161.139 2.74384C161.139 2.74384 148.56 19.7889 147.533 21.1781C147.199 21.628 146.692 22.1131 146.435 22.7145C145.786 24.2264 145.119 27.5426 145.119 27.5426L138.928 27.5732C138.928 27.5732 139.891 24.1167 139.852 22.2755C139.817 20.6669 138.996 19.0606 138.535 17.4474C138.07 15.8147 137.438 12.6193 137.438 12.6193H143.802L144.68 16.1307L154.373 2.70667Z" fill="#1A1918"/>
<path fill-rule="evenodd" clip-rule="evenodd" d="M141.561 6.30137C142.81 7.05421 143.576 11.2063 143.576 11.2063C143.576 11.2063 137.043 11.3026 133.487 11.3026H130.415L126.684 27.5425H120.979C120.979 27.5425 124.529 9.89393 125.368 6.69421C125.64 5.65852 127.229 5.83604 129.912 5.83604H134.198C136.966 5.83604 140.201 5.48286 141.561 6.30137Z" fill="#1A1918"/>
<path fill-rule="evenodd" clip-rule="evenodd" d="M114.998 14.2108C114.998 14.2108 115.176 13.1683 114.395 11.9613C113.728 10.9321 113.111 10.6929 111.356 10.6381C106.398 10.4822 106.494 14.1559 106.494 14.1559L114.998 14.2108ZM120.375 10.0039C121.102 12.6242 119.717 18.782 119.717 18.782C119.717 18.782 112.485 18.6612 108.525 18.782C107.293 18.8195 105.819 18.6482 105.452 19.221C104.936 20.024 105.64 21.2599 106.238 21.7819C106.925 22.3832 108.263 22.4514 108.744 22.5127C111.959 22.9211 118.688 22.6181 118.688 22.6181L117.522 27.7795C117.522 27.7795 108.013 28.256 103.257 27.1212C102.318 26.8975 101.438 26.4455 100.843 25.8045C100.681 25.6291 100.54 25.39 100.387 25.1836C100.264 25.0188 99.9065 24.4769 99.7461 24.0488C98.6599 21.1542 99.8734 15.6086 101.063 12.6373C101.201 12.2927 101.374 11.8562 101.557 11.4851C101.785 11.0222 101.978 10.4999 102.16 10.2232C102.283 10.0324 102.435 9.90938 102.562 9.72938C102.709 9.51655 102.88 9.31021 103.038 9.12619C103.477 8.61686 103.975 8.25686 104.574 7.80949C106.556 6.32582 110.142 5.17363 114.45 5.6148C116.071 5.78148 118.521 6.36082 119.717 8.02884C120.037 8.47435 120.195 9.35854 120.375 10.0039Z" fill="#1A1918"/>
<path fill-rule="evenodd" clip-rule="evenodd" d="M94.2048 5.81629L99.7374 5.78345C99.7374 5.78345 96.6542 20.4102 95.0828 27.5426H88.7184C84.2702 27.5426 80.3089 28.0935 78.6236 24.9089C76.9887 21.817 78.5489 16.7321 79.2819 13.2777C79.7999 10.833 80.8907 5.83612 80.8907 5.83612L86.6228 5.78345C86.6228 5.78345 85.0032 13.5631 84.3293 17.4475C84.088 18.8388 83.5901 20.149 84.11 21.1782C84.6038 22.1572 85.295 22.2272 87.4017 22.2755C88.069 22.291 90.2547 22.2755 90.2547 22.2755L94.2048 5.81629Z" fill="#1A1918"/>
<path fill-rule="evenodd" clip-rule="evenodd" d="M68.3091 16.3501C68.8884 14.2917 69.7332 12.0599 69.6257 10.2053C69.5096 8.22163 67.8462 6.41544 66.773 6.03592C63.5405 4.89459 60.5142 6.49011 59.3116 7.79131C57.7554 9.47698 57.2287 11.4455 56.6779 14.1557C56.2677 16.1679 55.9318 18.2923 56.6779 19.8615C57.9989 22.6355 62.1181 22.0298 66.5534 22.0562C67.2117 20.2918 67.756 18.31 68.3091 16.3501ZM75.9902 8.23031C76.6222 12.8257 74.1973 17.8976 72.5271 22.3084C74.2301 22.462 75.7225 22.2845 75.83 22.4115C75.9418 22.5764 74.6887 27.6764 74.2518 27.6894C72.9001 27.7248 68.4212 27.7619 66.5534 27.7619C60.4591 27.7619 54.7577 28.1591 51.8501 25.1286C50.6694 23.8974 49.8531 21.786 49.6554 20.3005C49.3261 17.8205 49.7388 15.0904 50.3138 12.839C50.8339 10.8067 51.501 8.88865 52.5085 7.13296C55.0693 2.66272 59.5244 -0.655344 66.9924 0.110506C68.4407 0.259834 70.5211 0.894014 71.8204 1.64654C71.9103 1.69952 72.2244 1.94954 72.2966 1.99353C74.0523 3.1107 75.6522 5.77692 75.9902 8.23031Z" fill="#1A1918"/>
<path fill-rule="evenodd" clip-rule="evenodd" d="M49.0256 5.84274C48.6569 7.5216 48.2883 9.42445 47.8998 11.0835H41.755C42.2312 9.24445 42.5955 7.41626 43.0717 5.81641C45.0381 5.81641 46.8662 5.84274 49.0256 5.84274Z" fill="#1A1918"/>
<path fill-rule="evenodd" clip-rule="evenodd" d="M41.5356 12.6195H47.4607C46.6862 16.9079 45.1523 23.825 43.9496 28.6398C43.1968 31.653 42.6943 33.852 40.6576 35.4429C40.4754 35.5857 40.3704 35.5178 40.2189 35.6625C39.8434 36.0204 38.1075 36.4352 37.1465 36.5402C35.5838 36.7094 33.8173 36.5622 31.8971 36.5229C32.3996 34.686 32.9681 32.4805 33.4158 30.8345C38.0967 31.4008 38.2154 26.9764 39.1215 22.7147C39.6461 20.2523 41.2351 13.6072 41.5356 12.6195Z" fill="#1A1918"/>
<path fill-rule="evenodd" clip-rule="evenodd" d="M27.7097 23.8121L27.5827 24.1411C25.4187 28.3545 21.5848 30.9399 16.116 31.0539C13.5595 31.1066 11.1235 30.4507 9.53227 29.7372C6.09803 28.1943 3.20967 25.3329 1.63212 22.2757C-0.630726 17.8932 -1.03875 11.7967 3.66633 7.24316C3.73883 7.24316 3.09566 8.23053 3.16816 8.23053L3.03866 8.65187C-0.351897 19.2669 10.094 28.3635 20.2483 27.3232C22.6886 27.0731 25.8007 25.7366 27.7097 23.8121Z" fill="#21609B"/>
<path fill-rule="evenodd" clip-rule="evenodd" d="M21.565 19.4227C24.1196 19.4403 26.788 18.2463 28.3681 16.57C26.9857 20.0792 22.983 22.3349 17.6149 21.6174C13.1205 21.016 8.8389 16.4931 8.39774 11.9612C8.07522 8.663 9.22493 6.69447 11.1191 4.30676C10.4608 5.55561 10.2148 6.5188 10.1534 7.13316C9.43374 14.2678 15.8527 19.3855 21.565 19.4227Z" fill="#21609B"/>
<path fill-rule="evenodd" clip-rule="evenodd" d="M28.1116 10.5611C27.7144 11.4719 25.4277 13.1923 24.418 13.4073C20.4196 14.259 17.8587 12.363 16.5176 10.2054C16.318 9.88293 15.9494 9.00307 15.8834 8.77908C15.3632 7.01037 15.6024 4.33517 17.1542 2.95032C16.6867 4.26701 16.6186 5.79654 16.8645 6.79072C17.0136 7.39206 17.4677 8.44138 17.9222 9.10159C18.7494 10.3043 19.2739 10.5964 20.3363 11.2349C20.8146 11.5224 21.328 11.7529 21.5498 11.8165C22.557 12.1126 24.6835 12.894 28.1116 10.5611Z" fill="#21609B"/>
</svg>
