<svg width="104" height="65" viewBox="0 0 104 65" fill="none" xmlns="http://www.w3.org/2000/svg">
<path d="M51.3662 64.8128C51.014 64.8128 50.6853 64.7171 50.3801 64.5496L47.2578 62.6595C46.7883 62.3963 47.023 62.3006 47.1639 62.2528C47.7978 62.0375 47.9151 61.9896 48.5725 61.6068C48.6429 61.559 48.7368 61.5829 48.8072 61.6307L51.2018 63.0902C51.2957 63.138 51.4131 63.138 51.4835 63.0902L60.8506 57.5635C60.9445 57.5157 60.9914 57.42 60.9914 57.3003V46.271C60.9914 46.1513 60.9445 46.0556 60.8506 46.0078L51.4835 40.5051C51.3896 40.4572 51.2722 40.4572 51.2018 40.5051L41.8348 46.0078C41.7409 46.0556 41.6939 46.1753 41.6939 46.271V57.3003C41.6939 57.396 41.7409 57.5157 41.8348 57.5635L44.3937 59.0708C45.7788 59.7885 46.6474 58.9512 46.6474 58.1138V47.228C46.6474 47.0844 46.7648 46.9409 46.9291 46.9409H48.1264C48.2673 46.9409 48.4081 47.0605 48.4081 47.228V58.1138C48.4081 60.0038 47.3987 61.1044 45.6379 61.1044C45.098 61.1044 44.6754 61.1044 43.4781 60.5063L41.0131 59.0708C40.4027 58.7119 40.0271 58.042 40.0271 57.3243V46.2949C40.0271 45.5771 40.4027 44.9072 41.0131 44.5484L50.3801 39.0217C50.9671 38.6868 51.7652 38.6868 52.3522 39.0217L61.7192 44.5484C62.3296 44.9072 62.7052 45.5771 62.7052 46.2949V57.3243C62.7052 58.042 62.3296 58.7119 61.7192 59.0708L52.3522 64.5974C52.047 64.741 51.6948 64.8128 51.3662 64.8128ZM54.2537 57.2286C50.1454 57.2286 49.3002 55.3146 49.3002 53.6877C49.3002 53.5441 49.4176 53.4006 49.582 53.4006H50.8027C50.9436 53.4006 51.061 53.4963 51.061 53.6398C51.2488 54.9078 51.7887 55.5299 54.2772 55.5299C56.2492 55.5299 57.0944 55.0753 57.0944 53.9987C57.0944 53.3767 56.8596 52.9221 53.7842 52.6111C51.2253 52.3479 49.6289 51.7737 49.6289 49.6922C49.6289 47.7543 51.2253 46.6059 53.9016 46.6059C56.9066 46.6059 58.3856 47.6586 58.5734 49.9554C58.5734 50.0272 58.5499 50.0989 58.5029 50.1707C58.456 50.2186 58.3856 50.2664 58.3151 50.2664H57.0944C56.977 50.2664 56.8596 50.1707 56.8361 50.0511C56.5544 48.7352 55.8266 48.3046 53.9016 48.3046C51.7418 48.3046 51.4835 49.0702 51.4835 49.6444C51.4835 50.3382 51.7887 50.5535 54.6998 50.9363C57.5874 51.3191 58.949 51.8694 58.949 53.9269C58.9255 56.0323 57.2352 57.2286 54.2537 57.2286Z" fill="#539E43"/>
<path d="M22.3025 21.6763C22.3025 21.2456 22.0677 20.8389 21.6921 20.6236L11.7381 14.7859C11.5738 14.6902 11.386 14.6423 11.1982 14.6184H11.1043C10.9165 14.6184 10.7287 14.6902 10.5643 14.7859L0.610384 20.6236C0.234763 20.8389 0 21.2456 0 21.6763L0.0234763 37.371C0.0234763 37.5863 0.140858 37.8016 0.328668 37.8973C0.516479 38.017 0.751242 38.017 0.915576 37.8973L6.8316 34.4521C7.20722 34.2368 7.44199 33.8301 7.44199 33.3995V26.0545C7.44199 25.6239 7.67675 25.2171 8.05237 25.0018L10.5643 23.5185C10.7521 23.3988 10.9634 23.351 11.1747 23.351C11.386 23.351 11.5973 23.3988 11.7616 23.5185L14.2736 25.0018C14.6492 25.2171 14.884 25.6239 14.884 26.0545V33.3995C14.884 33.8301 15.1187 34.2368 15.4944 34.4521L21.4104 37.8973C21.5982 38.017 21.833 38.017 22.0208 37.8973C22.2086 37.8016 22.326 37.5863 22.326 37.371L22.3025 21.6763Z" fill="#333333"/>
<path d="M70.1472 0.0720188C69.9594 -0.0236807 69.7246 -0.0236807 69.5603 0.0720188C69.3725 0.191643 69.2551 0.383042 69.2551 0.598366V16.1495C69.2551 16.2931 69.1847 16.4366 69.0438 16.5323C68.9029 16.6041 68.7621 16.6041 68.6212 16.5323L66.1327 15.0729C65.7571 14.8576 65.3111 14.8576 64.9355 15.0729L54.9815 20.9345C54.6059 21.1498 54.3711 21.5566 54.3711 21.9872V33.6865C54.3711 34.1171 54.6059 34.5239 54.9815 34.7392L64.9355 40.6008C65.3111 40.8161 65.7571 40.8161 66.1327 40.6008L76.0867 34.7392C76.4623 34.5239 76.6971 34.1171 76.6971 33.6865V4.52205C76.6971 4.06748 76.4623 3.66075 76.0867 3.44543L70.1472 0.0720188ZM69.2316 29.8346C69.2316 29.9542 69.1847 30.0499 69.0908 30.0978L65.6867 32.1074C65.5928 32.1553 65.4754 32.1553 65.3815 32.1074L61.9774 30.0978C61.8835 30.0499 61.8366 29.9303 61.8366 29.8346V25.8152C61.8366 25.6956 61.8835 25.5999 61.9774 25.552L65.3815 23.5423C65.4754 23.4945 65.5928 23.4945 65.6867 23.5423L69.0908 25.552C69.1847 25.5999 69.2316 25.7195 69.2316 25.8152V29.8346Z" fill="#333333"/>
<path d="M103.272 25.7194C103.648 25.5041 103.859 25.0974 103.859 24.6667V21.8197C103.859 21.389 103.624 20.9823 103.272 20.767L93.3887 14.9293C93.0131 14.714 92.5671 14.714 92.1914 14.9293L82.2375 20.7909C81.8619 21.0062 81.6271 21.413 81.6271 21.8436V33.5429C81.6271 33.9735 81.8619 34.3803 82.2375 34.5956L92.121 40.3376C92.4966 40.5529 92.9427 40.5529 93.2948 40.3376L99.2813 36.9402C99.4691 36.8445 99.5865 36.6292 99.5865 36.4139C99.5865 36.1985 99.4691 35.9832 99.2813 35.8875L89.2804 30.0259C89.0926 29.9063 88.9752 29.7149 88.9752 29.4996V25.8391C88.9752 25.6237 89.0926 25.4084 89.2804 25.3127L92.4027 23.4944C92.5905 23.3748 92.8253 23.3748 93.0131 23.4944L96.1354 25.3127C96.3233 25.4323 96.4406 25.6237 96.4406 25.8391V28.7101C96.4406 28.9254 96.558 29.1407 96.7458 29.2364C96.9336 29.356 97.1684 29.356 97.3562 29.2364L103.272 25.7194Z" fill="#333333"/>
<path d="M92.6375 25.1692C92.7079 25.1213 92.8018 25.1213 92.8723 25.1692L94.7738 26.2937C94.8443 26.3415 94.8912 26.4133 94.8912 26.509V28.7579C94.8912 28.8536 94.8443 28.9254 94.7738 28.9732L92.8723 30.0977C92.8018 30.1456 92.7079 30.1456 92.6375 30.0977L90.7359 28.9732C90.6655 28.9254 90.6185 28.8536 90.6185 28.7579V26.509C90.6185 26.4133 90.6655 26.3415 90.7359 26.2937L92.6375 25.1692Z" fill="#539E43"/>
<mask id="mask0_15_1923" style="mask-type:alpha" maskUnits="userSpaceOnUse" x="27" y="14" width="23" height="27">
<path d="M38.9472 14.9772C38.5715 14.7618 38.1255 14.7618 37.7499 14.9772L27.8664 20.7909C27.4907 21.0062 27.2794 21.413 27.2794 21.8436V33.495C27.2794 33.9257 27.5142 34.3324 27.8664 34.5477L37.7499 40.3615C38.1255 40.5768 38.5715 40.5768 38.9472 40.3615L48.8307 34.5477C49.2063 34.3324 49.4176 33.9257 49.4176 33.495V21.8436C49.4176 21.413 49.1828 21.0062 48.8307 20.7909L38.9472 14.9772Z" fill="white"/>
</mask>
<g mask="url(#mask0_15_1923)">
<path d="M38.9472 14.9772C38.5715 14.7618 38.1255 14.7618 37.7499 14.9772L27.8664 20.7909C27.4907 21.0062 27.2794 21.413 27.2794 21.8436V33.495C27.2794 33.9257 27.5142 34.3324 27.8664 34.5477L37.7499 40.3615C38.1255 40.5768 38.5715 40.5768 38.9472 40.3615L48.8307 34.5477C49.2063 34.3324 49.4176 33.9257 49.4176 33.495V21.8436C49.4176 21.413 49.1828 21.0062 48.8307 20.7909L38.9472 14.9772Z" fill="url(#paint0_linear_15_1923)"/>
<path d="M48.8542 20.7903L38.9237 14.9766C38.8298 14.9287 38.7124 14.8809 38.6185 14.8569L27.4908 34.2839C27.5847 34.4036 27.702 34.4993 27.8194 34.571L37.7499 40.3848C38.0316 40.5523 38.3603 40.6001 38.6655 40.5044L49.1124 21.0296C49.042 20.9339 48.9481 20.8621 48.8542 20.7903Z" fill="url(#paint1_linear_15_1923)"/>
<path fill-rule="evenodd" clip-rule="evenodd" d="M48.8777 34.5479C49.1594 34.3804 49.3707 34.0933 49.4646 33.7823L38.5716 14.8338C38.2898 14.7859 37.9846 14.8099 37.7264 14.9773L27.8664 20.7672L38.5011 40.5291C38.642 40.5052 38.8063 40.4573 38.9472 40.3856L48.8777 34.5479Z" fill="url(#paint2_linear_15_1923)"/>
<path fill-rule="evenodd" clip-rule="evenodd" d="M48.8776 34.5478L38.9706 40.3616C38.8298 40.4333 38.6889 40.4812 38.5246 40.5051L38.7124 40.864L49.6993 34.3803V34.2368L49.4176 33.7583C49.3706 34.0932 49.1594 34.3803 48.8776 34.5478Z" fill="url(#paint3_linear_15_1923)"/>
<path fill-rule="evenodd" clip-rule="evenodd" d="M48.8776 34.5478L38.9706 40.3616C38.8298 40.4333 38.6889 40.4812 38.5246 40.5051L38.7124 40.864L49.6993 34.3803V34.2368L49.4176 33.7583C49.3706 34.0932 49.1594 34.3803 48.8776 34.5478Z" fill="url(#paint4_linear_15_1923)"/>
</g>
<defs>
<linearGradient id="paint0_linear_15_1923" x1="42.3751" y1="19.3111" x2="31.2472" y2="36.4678" gradientUnits="userSpaceOnUse">
<stop stop-color="#41873F"/>
<stop offset="0.3288" stop-color="#418B3D"/>
<stop offset="0.6352" stop-color="#419637"/>
<stop offset="0.9319" stop-color="#3FA92D"/>
<stop offset="1" stop-color="#3FAE2A"/>
</linearGradient>
<linearGradient id="paint1_linear_15_1923" x1="36.8479" y1="29.0332" x2="64.2108" y2="14.4458" gradientUnits="userSpaceOnUse">
<stop offset="0.1376" stop-color="#41873F"/>
<stop offset="0.4032" stop-color="#54A044"/>
<stop offset="0.7136" stop-color="#66B848"/>
<stop offset="0.9081" stop-color="#6CC04A"/>
</linearGradient>
<linearGradient id="paint2_linear_15_1923" x1="26.9185" y1="27.6698" x2="49.7884" y2="27.6698" gradientUnits="userSpaceOnUse">
<stop offset="0.0919165" stop-color="#6CC04A"/>
<stop offset="0.2864" stop-color="#66B848"/>
<stop offset="0.5968" stop-color="#54A044"/>
<stop offset="0.8624" stop-color="#41873F"/>
</linearGradient>
<linearGradient id="paint3_linear_15_1923" x1="26.9185" y1="37.3307" x2="49.7884" y2="37.3307" gradientUnits="userSpaceOnUse">
<stop offset="0.0919165" stop-color="#6CC04A"/>
<stop offset="0.2864" stop-color="#66B848"/>
<stop offset="0.5968" stop-color="#54A044"/>
<stop offset="0.8624" stop-color="#41873F"/>
</linearGradient>
<linearGradient id="paint4_linear_15_1923" x1="53.1202" y1="18.7604" x2="47.111" y2="49.6582" gradientUnits="userSpaceOnUse">
<stop stop-color="#41873F"/>
<stop offset="0.3288" stop-color="#418B3D"/>
<stop offset="0.6352" stop-color="#419637"/>
<stop offset="0.9319" stop-color="#3FA92D"/>
<stop offset="1" stop-color="#3FAE2A"/>
</linearGradient>
</defs>
</svg>
